<svg width="30" height="29" viewBox="0 0 30 29" fill="none" xmlns="http://www.w3.org/2000/svg">
<g clip-path="url(#clip0_0_32)">
<path d="M14.847 16.8097C16.2737 16.8097 17.4303 15.6531 17.4303 14.2263C17.4303 12.7996 16.2737 11.643 14.847 11.643C13.4203 11.643 12.2637 12.7996 12.2637 14.2263C12.2637 15.6531 13.4203 16.8097 14.847 16.8097Z" fill="#00D8FF"/>
<path fill-rule="evenodd" clip-rule="evenodd" d="M14.8475 8.97397C18.316 8.97397 21.5381 9.47166 23.9676 10.308C26.8947 11.3158 28.6944 12.8433 28.6944 14.2264C28.6944 15.6677 26.7871 17.2905 23.6437 18.332C21.2672 19.1193 18.14 19.5304 14.8475 19.5304C11.4718 19.5304 8.27525 19.1446 5.87199 18.3233C2.83145 17.2841 1.00009 15.6403 1.00009 14.2264C1.00009 12.8545 2.71847 11.3388 5.60448 10.3326C8.04301 9.48243 11.3447 8.97397 14.847 8.97397H14.8475Z" stroke="#00D8FF" stroke-width="1.23587"/>
<path fill-rule="evenodd" clip-rule="evenodd" d="M10.2755 11.6152C12.0083 8.61063 14.049 6.06804 15.9873 4.38128C18.3225 2.349 20.5449 1.5531 21.743 2.244C22.9917 2.96405 23.4445 5.42709 22.7764 8.67032C22.2717 11.1224 21.065 14.0367 19.4202 16.8889C17.7337 19.8131 15.8027 22.3895 13.8908 24.0606C11.4716 26.1754 9.13272 26.9407 7.90792 26.2343C6.71943 25.5495 6.26494 23.3033 6.83509 20.3005C7.31682 17.7633 8.52576 14.6492 10.2749 11.6152L10.2755 11.6152Z" stroke="#00D8FF" stroke-width="1.23587"/>
<path fill-rule="evenodd" clip-rule="evenodd" d="M10.2787 16.8965C8.541 13.8953 7.35791 10.8568 6.86408 8.33525C6.26963 5.29707 6.68992 2.97415 7.88697 2.28124C9.13437 1.55908 11.4944 2.3968 13.9705 4.59541C15.8427 6.25765 17.7651 8.75808 19.4147 11.6076C21.106 14.529 22.3736 17.4888 22.8667 19.9797C23.4907 23.1318 22.9856 25.5403 21.762 26.2486C20.5747 26.936 18.402 26.2083 16.0852 24.2146C14.1278 22.5302 12.0335 19.9275 10.2787 16.8964V16.8965Z" stroke="#00D8FF" stroke-width="1.23587"/>
</g>
<defs>
<clipPath id="clip0_0_32">
<rect width="29.6944" height="28.5012" fill="white"/>
</clipPath>
</defs>
</svg>
